<svg width="45" height="45" viewBox="0 0 45 45" fill="none" xmlns="http://www.w3.org/2000/svg">
<g clip-path="url(#clip0)">
<path d="M45 22.5C45 10.0927 34.9073 -4.41168e-07 22.5 -9.83506e-07C10.0927 -1.52584e-06 3.37353e-06 10.0927 2.83119e-06 22.5C2.28885e-06 34.9073 10.0945 45 22.5 45C34.9055 45 45 34.9073 45 22.5ZM3.48566 22.5C3.48566 12.0168 12.0151 3.48565 22.5 3.48565C32.9849 3.48565 41.5143 12.0168 41.5143 22.5C41.5143 32.9849 32.9849 41.5144 22.5 41.5143C12.0151 41.5143 3.48566 32.9832 3.48566 22.5Z" fill="white"/>
<path d="M20.0949 32.4518L28.809 23.7376C29.4853 23.0579 29.4853 21.96 28.809 21.2802L20.0949 12.5661C19.4431 12.0066 18.4793 12.0066 17.8275 12.5661C17.0972 13.1917 17.0118 14.2932 17.6375 15.0235L25.1142 22.5002L17.6375 29.9944C16.9612 30.6741 16.9612 31.7721 17.6375 32.4518C18.3172 33.128 19.4152 33.128 20.0949 32.4518Z" fill="white"/>
</g>
<defs>
<clipPath id="clip0">
<rect width="45" height="45" fill="white" transform="translate(45) rotate(90)"/>
</clipPath>
</defs>
</svg>
