<svg width="165" height="48" viewBox="0 0 165 48" fill="none" xmlns="http://www.w3.org/2000/svg">
<path d="M82.6353 46.3179C59.9743 46.481 39.477 43.991 24.6652 39.855C17.2526 37.7851 11.3208 35.3185 7.25967 32.6052C3.16432 29.8691 1.19002 27.0376 1.17016 24.2815C1.1503 21.5254 3.08361 18.6657 7.13911 15.8709C11.1608 13.0995 17.0563 10.5477 24.4384 8.37133C39.189 4.02255 59.6484 1.23769 82.3094 1.07456C104.97 0.911431 125.468 3.40146 140.28 7.53742C147.692 9.60729 153.624 12.0739 157.685 14.7872C161.78 17.5233 163.755 20.3548 163.775 23.111C163.794 25.8671 161.861 28.7267 157.806 31.5215C153.784 34.293 147.888 36.8447 140.506 39.0211C125.756 43.3699 105.296 46.1548 82.6353 46.3179Z" stroke="#766B8F" stroke-width="2"/>
</svg>
