<svg width="163" height="62" viewBox="0 0 163 62" fill="none" xmlns="http://www.w3.org/2000/svg">
<path d="M76.5843 57.1698C54.2633 53.0982 34.6179 46.4458 20.9014 38.996C14.0407 35.2697 8.68909 31.3577 5.22513 27.4903C1.75565 23.6168 0.240008 19.8602 0.86984 16.41C1.49967 12.9598 4.24496 9.98038 8.85949 7.58145C13.4667 5.18633 19.8556 3.41593 27.5908 2.3521C43.0554 0.225213 63.7852 0.937761 86.1062 5.00935C108.427 9.08094 128.073 15.7333 141.789 23.1831C148.65 26.9094 154.001 30.8214 157.465 34.6888C160.935 38.5623 162.45 42.319 161.821 45.7692C161.191 49.2194 158.446 52.1987 153.831 54.5977C149.224 56.9928 142.835 58.7632 135.1 59.827C119.635 61.9539 98.9053 61.2414 76.5843 57.1698Z" stroke="#766B8F"/>
</svg>
