<svg width="16" height="16" viewBox="0 0 16 16" fill="none" xmlns="http://www.w3.org/2000/svg">
<rect width="16" height="16" rx="4" fill="#C2B6DF"/>
<path d="M14.9565 6.66913V8.27962C14.8411 8.24208 14.7231 8.2099 14.6076 8.1777C14.4359 8.13198 14.2668 8.09172 14.0976 8.05953C13.977 8.03269 13.8587 8.01119 13.7407 7.99515C13.6226 7.97365 13.5045 7.95754 13.3865 7.94681C13.2308 7.92533 13.0725 7.9119 12.9168 7.90122C12.8705 7.89583 12.8238 7.89312 12.7772 7.8931C12.745 7.89049 12.7101 7.89049 12.6752 7.88776C12.6591 7.88776 12.643 7.88501 12.6242 7.88501C12.5759 7.88241 12.5249 7.87967 12.4739 7.87967C12.3639 7.87705 12.2538 7.87705 12.1464 7.87705C12.0659 7.87705 11.9828 7.87705 11.9022 7.87967C11.8377 7.87967 11.7761 7.88242 11.7116 7.88501H11.6928C11.6579 7.88501 11.6204 7.88776 11.5854 7.89051C11.4755 7.89312 11.3654 7.89847 11.2554 7.90928C11.2293 7.90825 11.2032 7.91004 11.1775 7.91462C11.0863 7.91996 10.9949 7.92804 10.901 7.93612C10.8232 7.94407 10.7454 7.94953 10.6675 7.96023C10.5629 7.9683 10.4582 7.97899 10.3535 7.99514C10.1602 8.01664 9.9644 8.04348 9.77105 8.07293C9.64231 8.08909 9.51072 8.11059 9.38198 8.13197H9.37396C9.17799 8.16154 8.97941 8.19375 8.78344 8.22864V11.4494L8.51504 11.4978C8.15815 11.5595 7.79835 11.6239 7.44152 11.6857L7.1731 11.734V8.51301C6.97714 8.54793 6.77857 8.58011 6.5826 8.60968C5.9573 8.70897 5.33183 8.79229 4.70656 8.8325C3.45873 8.94524 2.20084 8.81952 1 8.46206V6.85168C2.19899 7.20923 3.45516 7.33492 4.70122 7.22201C5.32926 7.18175 5.95457 7.09861 6.5826 6.99931C6.77857 6.96974 6.97714 6.93753 7.1731 6.90264V3.68181L7.44152 3.63347C7.79841 3.57168 8.15821 3.50733 8.51504 3.44557L8.78349 3.39723V6.61822C8.97945 6.5833 9.17804 6.55112 9.374 6.52155L9.37935 6.51888L9.3821 6.52151C9.53234 6.49466 9.6827 6.47316 9.83293 6.45179C9.99137 6.43029 10.1497 6.40879 10.308 6.39L10.3107 6.38882L10.3133 6.39C10.6247 6.35236 10.936 6.32017 11.25 6.2988C11.3279 6.2933 11.403 6.28798 11.4782 6.28537C11.5531 6.27773 11.6283 6.27412 11.7036 6.27456H11.7091C11.7466 6.27195 11.7869 6.27195 11.8244 6.27195C12.015 6.26387 12.2055 6.26387 12.3962 6.26921H12.4685C12.5088 6.26921 12.5463 6.27195 12.5866 6.27455C12.6484 6.27455 12.7101 6.27724 12.7719 6.28262C12.8738 6.28796 12.9758 6.29605 13.0778 6.30412C13.1799 6.3122 13.2818 6.32289 13.3838 6.33631C13.4858 6.34972 13.5878 6.36041 13.6897 6.37657C13.781 6.38999 13.8723 6.40342 13.9636 6.42219C14.0065 6.43026 14.0521 6.43833 14.0977 6.44903C14.1648 6.46244 14.2346 6.47587 14.3017 6.49201C14.4037 6.51339 14.5056 6.54023 14.6076 6.56707C14.7231 6.59941 14.8411 6.6316 14.9565 6.66913Z" fill="#E6E7E8"/>
<path d="M14.9565 6.94824V7.98167L14.6881 7.92263L14.6801 7.91989C14.4815 7.8662 14.3098 7.82595 14.1487 7.79648C14.0279 7.76964 13.9018 7.74542 13.7757 7.72939C13.6628 7.70789 13.5368 7.69173 13.4106 7.67831C13.2603 7.65954 13.0966 7.6434 12.9355 7.6327C12.883 7.62699 12.8301 7.62429 12.7772 7.62463L12.694 7.61929C12.6592 7.61654 12.643 7.61654 12.6242 7.61654C12.5866 7.61392 12.5303 7.61119 12.4739 7.61119C12.3693 7.60858 12.2565 7.60858 12.1465 7.60858C12.0633 7.60858 11.9775 7.60858 11.8942 7.61119H11.8888C11.8351 7.61119 11.7761 7.61393 11.7143 7.61654C11.6526 7.61915 11.607 7.61929 11.5667 7.62203C11.4621 7.62464 11.3467 7.62998 11.2286 7.64079H11.2152C11.1917 7.64164 11.1684 7.64434 11.1453 7.64888C11.0676 7.65148 10.9896 7.65956 10.9118 7.6649L10.7964 7.67572C10.7401 7.68106 10.6864 7.6864 10.63 7.69447C10.5361 7.69983 10.4234 7.71324 10.3133 7.7294C10.1281 7.75078 9.92681 7.77762 9.73085 7.80719C9.61018 7.82334 9.48133 7.84211 9.35519 7.86361L9.33369 7.86622C9.13512 7.89579 8.93381 7.928 8.73507 7.96551L8.515 8.00316V11.4978C8.15811 11.5595 7.79831 11.6239 7.44148 11.6857V8.19367L7.12476 8.25007C6.93153 8.28227 6.73556 8.31445 6.54233 8.34402C5.81228 8.45935 5.22189 8.52918 4.69042 8.56411C4.37914 8.5856 4.07581 8.59629 3.79136 8.59629C2.93886 8.60534 2.0894 8.49329 1.26842 8.2635L1 8.18297V7.12012L1.26842 7.20861C2.08992 7.42475 2.93659 7.53036 3.78602 7.52263C4.08388 7.52263 4.39789 7.51194 4.71999 7.49045C5.27558 7.45291 5.86335 7.3858 6.62559 7.26502C6.82155 7.23545 7.02275 7.20324 7.22146 7.16573L7.44153 7.12807V3.63346C7.79842 3.57168 8.15822 3.50733 8.51506 3.44557V6.93751L8.8318 6.8811C8.98204 6.85426 9.13774 6.83015 9.29072 6.80604H9.29346C9.29346 6.80604 9.45985 6.7792 9.47332 6.7792L9.64244 6.75234V6.74959C9.71489 6.73891 9.78735 6.72811 9.85978 6.72014C9.98335 6.70127 10.2168 6.6718 10.2168 6.6718L10.3456 6.65566C10.6944 6.61539 10.9897 6.58594 11.2688 6.56704C11.3467 6.5617 11.4164 6.55636 11.489 6.55363C11.5254 6.54861 11.5622 6.54595 11.599 6.54567L11.6043 6.55102L11.717 6.54294H11.8109L11.8136 6.54019H11.8243C11.9372 6.53485 12.0391 6.53485 12.1383 6.53485C12.2216 6.53485 12.3049 6.53485 12.388 6.53759H12.4685C12.4981 6.53759 12.5276 6.5402 12.5571 6.54294H12.5866C12.6403 6.54294 12.694 6.54568 12.7504 6.55102C12.8578 6.55636 12.9571 6.56444 13.0563 6.57251C13.1556 6.58058 13.2523 6.58855 13.3489 6.60197C13.4536 6.61278 13.5502 6.62619 13.6468 6.64223C13.7434 6.65826 13.8239 6.66646 13.9099 6.68523C13.9661 6.69591 14.0011 6.70127 14.036 6.70934L14.0788 6.72014L14.2399 6.75233C14.3419 6.77372 14.4359 6.80056 14.5298 6.82478C14.5298 6.82478 14.6506 6.85697 14.6881 6.86766L14.9565 6.94824Z" fill="#E64C3C"/>
<path d="M13.0727 11.1328C11.6353 11.055 10.194 11.1614 8.78369 11.4494V8.97209C10.283 9.54476 11.7201 10.2687 13.0727 11.1328V11.1328Z" fill="#285680"/>
<path d="M14.957 10.4187V10.9636C14.9613 11.0372 14.944 11.1104 14.9073 11.1742C14.8706 11.2381 14.8161 11.2899 14.7504 11.3233C14.6377 11.2267 14.5297 11.3034 14.417 11.2095C14.4197 11.1854 14.4202 10.9905 14.4202 10.9636V10.4187C13.3218 9.44108 12.1011 8.61015 10.7888 7.94674C10.8265 7.94399 10.864 7.93866 10.9015 7.93606C10.9955 7.92798 11.0868 7.9199 11.178 7.91456C11.2037 7.90998 11.2298 7.90819 11.2559 7.90921C12.5942 8.57999 13.8386 9.42371 14.957 10.4187V10.4187Z" fill="#E6E7E8"/>
<path d="M14.4199 10.4187V10.9637C14.4199 10.9905 14.4199 11.1854 14.4167 11.2095C12.7819 9.94069 10.9758 8.90971 9.052 8.14724C9.18087 8.12574 9.6425 8.08904 9.77125 8.07288C9.9646 8.04343 10.1604 8.01659 10.3537 7.99509C10.4584 7.98428 10.5631 7.97086 10.6677 7.96017C10.708 7.95483 10.7482 7.94948 10.7885 7.94675C12.1008 8.61016 13.3215 9.44109 14.4199 10.4187Z" fill="#E64C3C"/>
<path d="M14.4199 10.4187V10.9637C14.4199 10.9905 14.4199 11.1034 14.4167 11.1277C12.9678 9.88346 11.3404 8.86371 9.58887 8.10246C9.71761 8.08097 9.64255 8.08904 9.77129 8.07288C9.96465 8.04343 10.1605 8.01659 10.3537 7.99509C10.4585 7.98428 10.5631 7.97086 10.6677 7.96017C10.708 7.95483 10.7483 7.94948 10.7886 7.94675C12.1009 8.61016 13.3215 9.4411 14.4199 10.4187Z" fill="#E64C3C"/>
<path d="M14.9565 8.27954V10.4187C13.838 9.4237 12.5937 8.57998 11.2554 7.90921C11.3653 7.90113 11.4754 7.89578 11.5854 7.89044C11.6203 7.88769 11.6579 7.88495 11.6928 7.88495H11.7116C11.7761 7.88234 11.8377 7.87961 11.9022 7.87961C11.9667 7.87961 12.0283 7.87698 12.0927 7.87698C12.2188 7.87698 12.345 7.87698 12.4738 7.87961C12.5249 7.87961 12.5758 7.88235 12.6241 7.88495C12.6429 7.88495 12.6591 7.88769 12.6751 7.88769C12.71 7.89044 12.7449 7.89044 12.7771 7.89303C12.8237 7.89305 12.8703 7.89575 12.9167 7.90112C13.0724 7.9118 13.2307 7.92523 13.3864 7.94672C13.5045 7.96014 13.6225 7.97626 13.7406 7.99506C13.8587 8.01383 13.9795 8.03533 14.0975 8.05944C14.2666 8.09162 14.4357 8.13189 14.6075 8.17761C14.723 8.20982 14.841 8.242 14.9565 8.27954Z" fill="#285680"/>
<path d="M7.17327 3.68181V6.15912C5.67394 5.58647 4.23686 4.86254 2.88428 3.99857V3.99582C4.32148 4.07443 5.76284 3.9689 7.17327 3.68181V3.68181Z" fill="#285680"/>
<path d="M7.17333 6.15913V6.90265C6.97737 6.93756 6.77879 6.96974 6.58283 6.99932C4.54393 6.2083 2.65777 5.06945 1.0083 3.63347C1.61821 3.82372 2.24745 3.94526 2.88434 3.99584V3.99858C4.23692 4.86255 5.674 5.58647 7.17333 6.15913V6.15913Z" fill="#E6E7E8"/>
<path d="M6.58262 6.9993C5.95458 7.0986 5.32927 7.18174 4.70124 7.222C3.36287 6.55128 2.11847 5.70756 1 4.71251V3.63074H1.00535L1.0081 3.63348C1.09398 3.71129 1.18258 3.78646 1.26844 3.85891C2.7796 5.12801 4.48273 6.14905 6.31419 6.88388C6.40276 6.92413 6.49411 6.96167 6.58262 6.9993Z" fill="#E6E7E8"/>
<path d="M6.44639 6.90583C5.99817 6.97036 5.41804 6.9993 4.97024 7.02877C3.63174 6.35804 2.38719 5.51431 1.26855 4.51925V3.85886C2.90168 5.02459 4.63432 6.04419 6.44639 6.90583V6.90583Z" fill="#E64C3C"/>
<path d="M4.70122 7.22199C3.45516 7.33491 2.19899 7.20922 1 6.85166V4.71249C2.11847 5.70754 3.36286 6.55127 4.70122 7.22199V7.22199Z" fill="#285680"/>
<path d="M4.70656 8.83252V8.83513C3.57104 9.61412 2.32031 10.2101 1 10.6013V8.46208C2.20084 8.81955 3.45873 8.94526 4.70656 8.83252V8.83252Z" fill="#285680"/>
<path d="M7.17313 8.51305V9.25655C5.83238 10.3143 4.39869 11.2486 2.88961 12.048H2.88686C2.2479 11.9979 1.6167 11.8754 1.00537 11.6829C1.0699 11.6669 1.13696 11.6481 1.20133 11.6266C1.66617 11.7448 2.14027 11.8229 2.61845 11.8601L2.54326 11.7007C3.97115 10.9975 4.70956 9.68496 6.13737 8.614L6.9047 8.55603C6.99332 8.54535 7.08454 8.52919 7.17313 8.51305Z" fill="#E6E7E8"/>
<path d="M6.77054 8.94679C5.49759 10.0418 4.12094 11.0102 2.6601 11.8381L2.62127 11.8601H2.61853C2.14035 11.8229 1.66625 11.7448 1.20142 11.6266C2.9872 10.955 4.63566 9.96354 6.06602 8.70093C6.17339 8.6849 7.06579 8.60521 7.17316 8.58371L6.77054 8.94679Z" fill="#E64C3C"/>
<path d="M7.17317 9.25655V11.734C5.76457 12.021 4.32504 12.1265 2.88965 12.048C4.39874 11.2486 5.83242 10.3143 7.17317 9.25655V9.25655Z" fill="#285680"/>
<path d="M6.35101 8.54689C4.77698 9.91186 2.96482 10.975 1.00535 11.6829H1V10.6013C2.32031 10.2101 3.57104 9.61413 4.70656 8.83515V8.83254C5.25931 8.76602 5.80821 8.67067 6.35101 8.54689V8.54689Z" fill="#E6E7E8"/>
<path d="M14.9566 4.52995V6.66914C14.8412 6.63161 14.7231 6.59942 14.6077 6.56711C14.5056 6.54027 14.4037 6.51343 14.3017 6.49205C14.2319 6.4759 14.1648 6.45974 14.0977 6.44906C14.0521 6.43837 14.0065 6.43029 13.9636 6.42222C13.8723 6.40345 13.781 6.39002 13.6897 6.37661C13.5878 6.36045 13.4858 6.34441 13.3838 6.33634C13.2824 6.32027 13.1803 6.30953 13.0778 6.30416C12.9758 6.29335 12.8738 6.28536 12.7719 6.28262C12.7101 6.27727 12.6484 6.27458 12.5866 6.27454C12.5464 6.27193 12.5088 6.2692 12.4685 6.2692H12.3961C12.2055 6.26385 12.015 6.26385 11.8244 6.27195C11.7868 6.27195 11.7466 6.27195 11.7091 6.27456H11.7036C11.6283 6.27412 11.553 6.27772 11.4781 6.28536C11.4019 6.28568 11.3257 6.29016 11.25 6.29879V6.29604C12.3856 5.51712 13.6363 4.92118 14.9566 4.52995V4.52995Z" fill="#285680"/>
<path d="M14.9569 3.98515V4.52994C13.6366 4.92119 12.3859 5.51714 11.2503 6.29608V6.29882C10.939 6.31758 10.625 6.34977 10.3136 6.39003L10.311 6.38885L10.3083 6.39003C10.1499 6.40606 9.99163 6.42756 9.83321 6.45181C9.68298 6.47319 9.53263 6.49469 9.38238 6.52153L9.37964 6.51891C10.9864 5.21685 12.8023 4.19675 14.7502 3.50201C14.8768 3.63174 14.9505 3.804 14.9569 3.98515V3.98515Z" fill="#E6E7E8"/>
<path d="M14.7499 3.50197C12.802 4.19672 10.9861 5.21681 9.37936 6.51887L9.37396 6.52149C9.2666 6.53764 9.15923 6.55367 9.05186 6.57517C8.96326 6.58598 8.872 6.60201 8.78345 6.61816V5.87466C10.126 4.81601 11.5615 3.88085 13.0725 3.08058C13.5265 3.11776 13.977 3.19043 14.4197 3.29792C14.5181 3.32415 14.6091 3.37286 14.6855 3.44022H14.6881C14.7096 3.4617 14.7312 3.48047 14.7499 3.50197Z" fill="#E6E7E8"/>
<path d="M8.80615 6.34656C10.2198 5.16965 11.7378 4.12406 13.3412 3.22276C13.7285 3.2541 14.1121 3.32089 14.4872 3.4223C14.5087 3.44344 14.4684 3.40056 14.4872 3.4223C12.9687 4.21145 11.5257 5.13789 10.176 6.19002L8.80615 6.34656Z" fill="#E64C3C"/>
<path d="M13.0727 3.0806C11.5618 3.88087 10.1263 4.81603 8.78369 5.87467V3.39723C10.194 3.10925 11.6353 3.00285 13.0727 3.0806V3.0806Z" fill="#285680"/>
<path d="M14.7501 11.3233C14.6466 11.3708 14.5297 11.3803 14.4199 11.3501C13.9772 11.2426 13.5267 11.17 13.0727 11.1328C11.7201 10.2687 10.283 9.54475 8.78369 8.97209V8.22859C8.97966 8.19367 8.9179 8.16552 9.11363 8.13595L9.18073 8.11932C11.1461 8.9857 13.0132 10.0598 14.7501 11.3233V11.3233Z" fill="#E6E7E8"/>
</svg>
