<svg width="28" height="28" viewBox="0 0 28 28" fill="none" xmlns="http://www.w3.org/2000/svg">
<path d="M19.8894 0H8.10794C6.98122 0 6.07101 0.913745 6.07101 2.04046V25.9622C6.07101 27.0854 6.98122 28 8.10794 28H19.8894C21.0144 28 21.9281 27.0863 21.9281 25.9622V2.04046C21.9272 0.913745 21.0144 0 19.8894 0ZM20.4002 22.6863H7.59893V3.44201H20.4002V22.6863ZM16.7302 2.07051H11.268V1.47489H16.7311L16.7302 2.07051ZM19.0676 1.79833C19.0676 2.08641 18.8325 2.31971 18.5453 2.31971C18.2572 2.31971 18.023 2.08553 18.023 1.79833C18.023 1.51113 18.2572 1.27694 18.5453 1.27694C18.8334 1.27606 19.0676 1.51024 19.0676 1.79833ZM16.4854 25.8261H11.5111V24.2955H16.4854V25.8261Z" fill="#1C1F83"/>
</svg>
